<svg fill="none" xmlns="http://www.w3.org/2000/svg" viewBox="0 0 16 16"><path fill-rule="evenodd" clip-rule="evenodd" d="M.5 1.9167a.6667.6667 0 0 1 .6667-.6667h2.3177a.6667.6667 0 0 1 .6537.5358l.4726 2.3614h9.3035a.6668.6668 0 0 1 .6549.7915l-.9271 4.8615-.001.005a1.8256 1.8256 0 0 1-1.8184 1.4696H6.2018a1.8253 1.8253 0 0 1-1.8183-1.469l-.0001-.0007-.9674-4.8333a.6596.6596 0 0 1-.0106-.053l-.4675-2.3355H1.1667A.6667.6667 0 0 1 .5 1.9167Zm4.3776 3.5638.8134 4.064.0002.0009a.4922.4922 0 0 0 .4922.3962l.0127-.0002H11.841v.0002a.4923.4923 0 0 0 .4918-.3942l.7756-4.0669H4.8776Zm-.3202 8.0249c0-.6879.5577-1.2457 1.2457-1.2457.688 0 1.2457.5578 1.2457 1.2457 0 .688-.5577 1.2457-1.2457 1.2457-.688 0-1.2457-.5577-1.2457-1.2457Zm6.3733 0c0-.6879.5577-1.2457 1.2457-1.2457.688 0 1.2457.5578 1.2457 1.2457 0 .688-.5577 1.2457-1.2457 1.2457-.688 0-1.2457-.5577-1.2457-1.2457Z" fill="#2D3440"/></svg>