<svg fill="none" xmlns="http://www.w3.org/2000/svg" viewBox="0 0 16 16"><path fill-rule="evenodd" clip-rule="evenodd" d="M2.296 1.3333a.9628.9628 0 0 0-.9628.9628V13.702c0 .2554.1014.5002.282.6808l-.4714.4714.4714-.4714a.963.963 0 0 0 .6807.282h11.406a.9628.9628 0 0 0 .9627-.9628.6607.6607 0 0 1 .0011-.0373V2.2961c0-.2485-.0748-.4736-.282-.6808l.4692-.4692-.4692.4692c-.1555-.1555-.2284-.2039-.2861-.2294-.0545-.024-.1529-.0526-.3947-.0526H2.2959ZM2.296 0h-.4063a.664.664 0 0 0-.4312.1582A2.2957 2.2957 0 0 0-.0002 2.296V13.702a2.296 2.296 0 0 0 2.2961 2.2961h11.406a2.2962 2.2962 0 0 0 2.1362-1.4544.664.664 0 0 0 .1609-.4343V2.2961c0-.5662-.191-1.142-.6725-1.6236-.1889-.1889-.4025-.3791-.69-.5061C14.3458.0379 14.0404 0 13.7029 0H2.2959Z" fill="#2D3440"/></svg>