<svg fill="none" xmlns="http://www.w3.org/2000/svg" viewBox="0 0 16 16"><path fill-rule="evenodd" clip-rule="evenodd" d="M2.2956 1.3333a.9619.9619 0 0 0-.6803.282.9633.9633 0 0 0-.282.681v11.407c0 .2555.1015.5004.282.681a.962.962 0 0 0 .6803.2819h11.4022a.962.962 0 0 0 .6803-.2819.9633.9633 0 0 0 .282-.681V7.9998a.6666.6666 0 1 1 1.3333 0v5.7035a2.2966 2.2966 0 0 1-.6723 1.6236 2.2953 2.2953 0 0 1-1.6233.6726H2.2956a2.2954 2.2954 0 0 1-2.2955-2.2962V2.2963c0-.609.2417-1.193.6722-1.6236A2.2952 2.2952 0 0 1 2.2956 0h8.9589a.6667.6667 0 1 1 0 1.3333H2.2956ZM15.7912.998a.6667.6667 0 0 1 .0255.9425l-7.7186 8.1479a.6667.6667 0 0 1-.968 0L4.8145 7.6439a.6667.6667 0 0 1 .968-.917L7.614 8.6605l7.2346-7.637a.6667.6667 0 0 1 .9425-.0255Z" fill="#2D3440"/></svg>