<svg xmlns="http://www.w3.org/2000/svg"><style>:root svg:not(:target){display:none}</style><svg fill="none" viewBox="0 0 16 16" id="arrow-down-icon"><path fill-rule="evenodd" clip-rule="evenodd" d="M2.865 6.195a.667.667 0 0 1 .943 0l4.195 4.195L12.2 6.195a.667.667 0 1 1 .942.943l-4.666 4.667a.666.666 0 0 1-.943 0L2.865 7.138a.667.667 0 0 1 0-.943Z" fill="#2D3440"></path></svg><svg fill="none" viewBox="0 0 16 16" id="arrow-right-icon"><path fill-rule="evenodd" clip-rule="evenodd" d="M6.195 2.865a.665.665 0 0 1 .94 0l4.672 4.671a.665.665 0 0 1 0 .94l-4.672 4.672a.665.665 0 1 1-.94-.94l4.201-4.202-4.201-4.2a.665.665 0 0 1 0-.941Z" fill="#2D3440"></path></svg><svg fill="none" viewBox="0 0 12 12" id="breadcrumbs-divider"><path fill-rule="evenodd" clip-rule="evenodd" d="M2.646 3.146a.5.5 0 0 1 .708 0l2.5 2.5a.5.5 0 0 1 0 .708l-2.5 2.5a.5.5 0 1 1-.708-.708L4.793 6 2.646 3.854a.5.5 0 0 1 0-.708Zm3.5 0a.5.5 0 0 1 .708 0l2.5 2.5a.5.5 0 0 1 0 .708l-2.5 2.5a.5.5 0 1 1-.708-.708L8.293 6 6.146 3.854a.5.5 0 0 1 0-.708Z" fill="#2D3440"></path></svg><svg fill="none" viewBox="0 0 16 16" id="cart-icon"><path fill-rule="evenodd" clip-rule="evenodd" d="M.5 1.917a.667.667 0 0 1 .667-.667h2.317a.667.667 0 0 1 .654.536l.473 2.361h9.303a.667.667 0 0 1 .655.792L13.642 9.8l-.001.005a1.826 1.826 0 0 1-1.818 1.47H6.202a1.825 1.825 0 0 1-1.818-1.47l-.968-4.833a.66.66 0 0 1-.01-.053l-.468-2.336H1.167A.667.667 0 0 1 .5 1.917ZM4.878 5.48l.813 4.064a.492.492 0 0 0 .492.397H11.841a.492.492 0 0 0 .492-.395l.775-4.067h-8.23Zm-.32 8.024a1.246 1.246 0 1 1 2.49 0 1.246 1.246 0 0 1-2.49 0Zm6.373 0a1.246 1.246 0 1 1 2.491 0 1.246 1.246 0 0 1-2.491 0Z" fill="#2D3440"></path></svg><svg fill="none" viewBox="0 0 16 16" id="filter-checkbox-checked"><path fill-rule="evenodd" clip-rule="evenodd" d="M2.296 1.333a.962.962 0 0 0-.68.282.963.963 0 0 0-.283.681v11.407c0 .256.102.5.282.681a.962.962 0 0 0 .68.282h11.403a.962.962 0 0 0 .68-.282.963.963 0 0 0 .282-.68V8a.667.667 0 1 1 1.333 0v5.703a2.297 2.297 0 0 1-.672 1.624 2.295 2.295 0 0 1-1.623.672H2.296A2.295 2.295 0 0 1 0 13.703V2.296C0 1.687.242 1.103.672.673A2.295 2.295 0 0 1 2.296 0h8.959a.667.667 0 1 1 0 1.333h-8.96ZM15.79.998a.667.667 0 0 1 .026.943l-7.719 8.147a.667.667 0 0 1-.968 0L4.814 7.644a.667.667 0 0 1 .968-.917L7.614 8.66l7.235-7.637a.667.667 0 0 1 .942-.026Z" fill="#2D3440"></path></svg><svg fill="none" viewBox="0 0 16 16" id="filter-checkbox"><path fill-rule="evenodd" clip-rule="evenodd" d="M2.296 1.333a.963.963 0 0 0-.963.963v11.406c0 .255.102.5.282.68l-.471.472.471-.471a.963.963 0 0 0 .68.282h11.407a.963.963 0 0 0 .963-.963.66.66 0 0 1 0-.037V2.296a.91.91 0 0 0-.281-.68l.469-.47-.47.47c-.155-.156-.228-.205-.285-.23-.055-.024-.153-.053-.395-.053H2.296Zm0-1.333H1.89a.664.664 0 0 0-.431.158 2.296 2.296 0 0 0-1.46 2.138v11.406a2.296 2.296 0 0 0 2.297 2.296h11.406a2.296 2.296 0 0 0 2.136-1.454.664.664 0 0 0 .161-.435V2.296c0-.566-.191-1.142-.672-1.624-.19-.188-.403-.379-.69-.506C14.346.038 14.04 0 13.703 0H2.296Z" fill="#2D3440"></path></svg><svg fill="none" viewBox="0 0 16 16" id="filter-radio-checked"><path fill-rule="evenodd" clip-rule="evenodd" d="M14.667 8A6.667 6.667 0 1 1 1.333 8a6.667 6.667 0 0 1 13.334 0ZM8 16A8 8 0 1 0 8 0a8 8 0 0 0 0 16Zm0-5a3 3 0 1 0 0-6 3 3 0 0 0 0 6Z" fill="#2D3440"></path></svg><svg fill="none" viewBox="0 0 16 16" id="filter-radio"><path fill-rule="evenodd" clip-rule="evenodd" d="M8 1.333a6.667 6.667 0 1 0 0 13.334A6.667 6.667 0 0 0 8 1.333ZM0 8a8 8 0 1 1 16 0A8 8 0 0 1 0 8Z" fill="#2D3440"></path></svg><svg fill="none" viewBox="0 0 16 16" id="footer-navigation-heart"><path d="M13.89 2.994a3.667 3.667 0 0 0-5.186 0l-.706.707-.707-.707a3.667 3.667 0 0 0-5.187 5.187l.707.707 5.187 5.186 5.186-5.186.707-.707a3.667 3.667 0 0 0 0-5.187Z" fill="#2D3440"></path></svg><svg fill="none" viewBox="0 0 16 16" id="header-user-login"><path fill-rule="evenodd" clip-rule="evenodd" d="M9 1.667A.667.667 0 0 1 9.667 1h2.666a2 2 0 0 1 2 2v9.333a2 2 0 0 1-2 2H9.667a.667.667 0 1 1 0-1.333h2.666a.666.666 0 0 0 .472-.195.666.666 0 0 0 .195-.472V3a.666.666 0 0 0-.667-.667H9.667A.667.667 0 0 1 9 1.667ZM5.862 3.862a.667.667 0 0 1 .943 0l3.333 3.333a.667.667 0 0 1 0 .943l-3.333 3.333a.667.667 0 1 1-.943-.942l2.195-2.196h-6.39a.667.667 0 1 1 0-1.333h6.39L5.862 4.805a.667.667 0 0 1 0-.943Z" fill="#2D3440"></path></svg><svg fill="none" viewBox="0 0 16 16" id="header-user-search"><path fill-rule="evenodd" clip-rule="evenodd" d="M7.33 2.663a4.667 4.667 0 1 0 3.238 8.028.67.67 0 0 1 .123-.123 4.667 4.667 0 0 0-3.36-7.904Zm4.688 8.412a6 6 0 1 0-.943.943l2.45 2.45a.667.667 0 0 0 .943-.943l-2.45-2.45Z" fill="#2D3440"></path></svg><svg fill="none" viewBox="0 0 32 32" id="shop-advantages-cow"><path d="M26.749 10.287a12.053 12.053 0 0 0 .458-9.553 1.007 1.007 0 0 0-.337-.479 1.07 1.07 0 0 0-1.14-.109c-.18.093-.33.234-.427.407-1.322 2.285-4.163 5.969-6.244 6.14h-.093a17.34 17.34 0 0 0-2.904-.302c-.978.019-1.953.12-2.913.302h-.073c-2.081-.161-4.963-3.845-6.295-6.13a1.022 1.022 0 0 0-.425-.434 1.07 1.07 0 0 0-1.175.104 1.01 1.01 0 0 0-.336.5 11.996 11.996 0 0 0 .406 9.544c-1.81.221-4.11.785-4.943 2.204a2.15 2.15 0 0 0 0 2.215c.239.411.593.748 1.023.97.43.224.916.323 1.402.288a7.575 7.575 0 0 0 2.518-.483 8.449 8.449 0 0 0 .135 1.62 34.445 34.445 0 0 0 1.821 5.235c.198.473.416 1.007.53 1.329-.34.808-.609 1.643-.8 2.496-.05.603.028 1.21.228 1.782.2.573.52 1.1.937 1.55C9.611 31.154 12.264 32 16.032 32c3.766 0 6.43-.846 7.928-2.517.42-.448.74-.975.94-1.549.2-.573.278-1.18.226-1.783a14.586 14.586 0 0 0-.791-2.496c.114-.322.333-.846.52-1.329a32.616 32.616 0 0 0 1.821-5.234 7.79 7.79 0 0 0 .146-1.621c.777.294 1.6.457 2.435.483a2.65 2.65 0 0 0 1.406-.288c.43-.222.788-.559 1.029-.97a2.15 2.15 0 0 0 0-2.215c-.822-1.369-3.122-1.973-4.943-2.194Zm-.988-6.684a9.263 9.263 0 0 1-1.041 6.15c-.26-.306-.539-.598-.832-.876A7.488 7.488 0 0 0 21.9 7.61a17.355 17.355 0 0 0 3.86-4.006Zm-19.47 0a16.959 16.959 0 0 0 3.85 4.026 6.816 6.816 0 0 0-1.966 1.269c-.298.276-.58.568-.843.875a9.283 9.283 0 0 1-1.04-6.17Zm-4.1 10.127c-.093-.162-.062-.212 0-.252.24-.393 1.447-1.007 3.757-1.238-.114.292-.218.583-.312.886-1.353.674-3.163 1.097-3.444.604Zm22.435 3.02a33.27 33.27 0 0 1-1.686 4.841 19.56 19.56 0 0 0-.717 1.883l-.063.312.115.282c.329.767.597 1.558.8 2.365.012.318-.042.634-.158.931-.116.298-.292.57-.518.8-.749.836-2.455 1.823-6.357 1.823-3.903 0-5.609-1.007-6.358-1.822a2.42 2.42 0 0 1-.677-1.732c.209-.807.48-1.598.812-2.365l.115-.282-.073-.312a15.957 15.957 0 0 0-.708-1.893 32.421 32.421 0 0 1-1.706-4.872 7.004 7.004 0 0 1 .283-3.465 7.202 7.202 0 0 1 1.923-2.937c1.57-1.53 5.13-1.872 6.368-1.883 1.238-.01 4.724.343 6.389 1.903a7.116 7.116 0 0 1 1.935 2.922 6.917 6.917 0 0 1 .281 3.46v.04Zm5.203-3.02c-.27.483-2.081.07-3.371-.595a10.09 10.09 0 0 0-.302-.895c2.29.231 3.486.845 3.715 1.238.052.04.073.09-.021.252h-.02Z" fill="#2D3440"></path></svg><svg fill="none" viewBox="0 0 32 32" id="shop-advantages-ice-cream"><path d="M16 0a8.01 8.01 0 0 0-7.944 7.059H8v15.887h16V7.059h-.056A8.01 8.01 0 0 0 16 0Zm6.118 21.064H9.882v-8.678a1.685 1.685 0 0 0 1.45.602c1.214 0 2.004-.677 2.004-1.534v-.819a.808.808 0 0 1 1.407-.627.81.81 0 0 1 .203.627v3.097a1.76 1.76 0 0 0 1.995 1.722 1.75 1.75 0 0 0 1.995-1.647v-2.08a1.269 1.269 0 0 1 1.778-1.272 1.268 1.268 0 0 1 .754 1.272.387.387 0 0 0 0 .085 1.064 1.064 0 0 0 .63.837v8.471l.02-.056Zm-7.53 9.524a1.412 1.412 0 0 0 2.824 0v-6.7h-2.824v6.7Z" fill="#2D3440"></path></svg><svg fill="none" viewBox="0 0 32 32" id="shop-advantages-leaf"><path d="M25.324 18.485C24.918 9.41 17.01.621 16.657.24h-.045l-.109-.124-.117-.077h-.506L15.708 0h-.045L15.5.115 15.4.2h-.045c-.352.42-8.26 9.218-8.685 18.284a1.495 1.495 0 0 0 0 .2v1.042c.343 9.84 9.038 12.247 9.11 12.266h.226c.075.01.151.01.226 0 .082 0 8.767-2.474 9.101-12.266v-1.041c0-.067-.009-.134-.009-.2ZM9.056 15.132a22.227 22.227 0 0 0 6.046 3.926v4.347c-2.214-1.156-5.621-3.21-6.624-5.015a17.58 17.58 0 0 1 .55-3.258h.028Zm1.808-4.872a11.106 11.106 0 0 0 4.238 2.923v3.764a17.323 17.323 0 0 1-5.422-3.821c.344-.978.739-1.935 1.184-2.866Zm11.487 2.866a17.3 17.3 0 0 1-5.423 3.821v-3.764a11.112 11.112 0 0 0 4.203-2.923 28.79 28.79 0 0 1 1.22 2.828v.038Zm-5.423-1.968V3.515a43.227 43.227 0 0 1 3.299 4.949 8.28 8.28 0 0 1-3.317 2.656l.018.038Zm0 12.266v-4.366a22.21 22.21 0 0 0 6.074-3.907c.276 1.068.452 2.163.524 3.267-.994 1.777-4.402 3.821-6.616 4.968l.018.038ZM15.12 11.158a8.206 8.206 0 0 1-3.316-2.694 43.263 43.263 0 0 1 3.298-4.996l.018 7.69Zm-6.453 10.25a30.164 30.164 0 0 0 6.435 4.098v4.204a10.679 10.679 0 0 1-4.216-3.285 11.518 11.518 0 0 1-2.219-5.017Zm8.243 8.311v-4.222a29.675 29.675 0 0 0 6.435-4.089 11.368 11.368 0 0 1-2.2 5.036 10.53 10.53 0 0 1-4.235 3.275Z" fill="#2D3440"></path></svg><svg fill="none" viewBox="0 0 32 32" id="shop-advantages-thermometer"><path d="M19.189 5.07c0-1.345-.492-2.634-1.367-3.585C16.947.535 15.76 0 14.522 0c-1.237 0-2.424.534-3.3 1.485-.875.95-1.366 2.24-1.366 3.584v14.755C8.659 21.151 7.993 22.936 8 24.793a7.686 7.686 0 0 0 .782 3.41 7.008 7.008 0 0 0 2.176 2.599 6.284 6.284 0 0 0 3.05 1.168 6.144 6.144 0 0 0 3.196-.543 6.705 6.705 0 0 0 2.577-2.125 7.489 7.489 0 0 0 1.341-3.197 7.781 7.781 0 0 0-.214-3.506 7.298 7.298 0 0 0-1.72-2.976V5.069Zm.167 19.723c.01.88-.188 1.747-.575 2.52a5.017 5.017 0 0 1-1.63 1.897 4.495 4.495 0 0 1-2.276.795 4.43 4.43 0 0 1-2.343-.51 4.88 4.88 0 0 1-1.819-1.685 5.44 5.44 0 0 1-.833-2.433 5.563 5.563 0 0 1 .364-2.566 5.125 5.125 0 0 1 1.467-2.05V5.07c0-.81.296-1.586.823-2.159a2.703 2.703 0 0 1 1.988-.894c.746 0 1.46.321 1.988.894.527.573.823 1.35.823 2.16v15.5a5.024 5.024 0 0 1 1.49 1.841 5.49 5.49 0 0 1 .533 2.382Z" fill="#2D3440"></path><path d="M15.534 21.638V5.14c0-.267-.098-.524-.272-.713a.892.892 0 0 0-.656-.295.892.892 0 0 0-.656.295 1.054 1.054 0 0 0-.272.713v16.498a2.85 2.85 0 0 0-1.473 1.321A3.246 3.246 0 0 0 11.863 25c.11.703.447 1.341.949 1.8.502.46 1.137.713 1.794.713a2.66 2.66 0 0 0 1.794-.712c.502-.46.838-1.098.949-1.8a3.246 3.246 0 0 0-.343-2.042 2.85 2.85 0 0 0-1.473-1.32ZM26.667 3.94H21.1v2.016h5.567V3.941Zm0 4.032H21.1v2.016h5.567V7.972Zm0 4.031H21.1v2.016h5.567v-2.016Zm0 4.032H21.1v2.015h5.567v-2.015Z" fill="#2D3440"></path></svg><svg fill="none" viewBox="0 0 24 24" id="social-telegram"><path fill-rule="evenodd" clip-rule="evenodd" d="M24 12a12 12 0 1 1-24 0 12 12 0 0 1 24 0ZM12.43 8.86c-1.17.48-3.5 1.49-7 3.01-.57.23-.86.45-.9.67-.04.36.42.5 1.04.7l.27.08c.6.2 1.43.44 1.86.45.39 0 .82-.16 1.3-.48 3.27-2.21 4.96-3.33 5.06-3.35.08-.02.18-.04.25.02.07.07.07.18.06.22-.05.19-1.84 1.86-2.77 2.72a28.24 28.24 0 0 0-.82.79c-.57.54-1 .96.02 1.63.5.32.89.59 1.28.85a88.77 88.77 0 0 0 1.8 1.23c.5.35.95.67 1.5.62.32-.03.65-.33.82-1.23.4-2.13 1.18-6.73 1.36-8.63.01-.16 0-.31-.02-.47a.5.5 0 0 0-.17-.33.78.78 0 0 0-.46-.14c-.46.01-1.15.25-4.48 1.64Z" fill="#FCFCFC"></path></svg><svg fill="none" viewBox="0 0 24 24" id="social-vk"><path fill-rule="evenodd" clip-rule="evenodd" d="M24 12a12 12 0 1 1-24 0 12 12 0 0 1 24 0Zm-11.41 2.97h-.72s-1.58.09-2.98-1.18C7.37 12.4 6.03 9.65 6.03 9.65s-.07-.18 0-.27c.1-.1.36-.1.36-.1l1.72-.01s.16.02.27.1c.1.05.15.17.15.17s.28.61.65 1.17c.71 1.08 1.05 1.32 1.29 1.2.35-.16.25-1.53.25-1.53s0-.5-.18-.71c-.14-.17-.41-.22-.53-.24-.1-.01.06-.2.26-.3.31-.13.86-.13 1.5-.13.5 0 .65.03.84.07.46.1.44.41.41 1.08l-.02.7v.18c-.01.34-.02.73.23.88.13.07.45 0 1.26-1.19.38-.56.66-1.23.66-1.23s.07-.12.16-.17c.1-.05.24-.04.24-.04h1.8s.54-.06.63.15c.1.23-.2.75-.94 1.61-.7.82-1.03 1.12-1 1.38.01.2.23.38.66.72.89.73 1.13 1.1 1.18 1.2l.01.01c.4.58-.44.62-.44.62l-1.6.02s-.34.06-.8-.2a3.94 3.94 0 0 1-.69-.6c-.33-.34-.65-.66-.91-.58-.45.12-.44.96-.44.96s0 .18-.1.28c-.1.1-.32.12-.32.12Z" fill="#FCFCFC"></path></svg><svg fill="none" viewBox="0 0 24 24" id="social-youtube"><path d="m14 11.8-2.8-1.32c-.25-.11-.45.01-.45.29v2.46c0 .28.2.4.45.29L14 12.2c.25-.12.25-.3 0-.42ZM12 0a12 12 0 1 0 0 24 12 12 0 0 0 0-24Zm0 16.88c-6.14 0-6.25-.56-6.25-4.88s.1-4.88 6.25-4.88c6.14 0 6.25.56 6.25 4.88s-.1 4.88-6.25 4.88Z" fill="#FCFCFC"></path></svg></svg>