<svg xmlns="http://www.w3.org/2000/svg"><style>:root svg:not(:target){display:none}</style><svg fill="none" viewBox="0 0 16 16" id="footer-navigation-heart"><path d="M13.89 2.994a3.667 3.667 0 0 0-5.186 0l-.706.707-.707-.707a3.667 3.667 0 0 0-5.187 5.187l.707.707 5.187 5.186 5.186-5.186.707-.707a3.667 3.667 0 0 0 0-5.187Z" fill="#2D3440"></path></svg><svg fill="none" viewBox="0 0 16 16" id="header-navigation-arrow"><path fill-rule="evenodd" clip-rule="evenodd" d="M2.865 6.195a.667.667 0 0 1 .943 0l4.195 4.195L12.2 6.195a.667.667 0 1 1 .942.943l-4.666 4.667a.666.666 0 0 1-.943 0L2.865 7.138a.667.667 0 0 1 0-.943Z" fill="#2D3440"></path></svg><svg fill="none" viewBox="0 0 16 16" id="header-user-cart"><path fill-rule="evenodd" clip-rule="evenodd" d="M.5 1.917a.667.667 0 0 1 .667-.667h2.317a.667.667 0 0 1 .654.536l.473 2.361h9.303a.667.667 0 0 1 .655.792L13.642 9.8l-.001.005a1.826 1.826 0 0 1-1.818 1.47H6.202a1.825 1.825 0 0 1-1.818-1.47l-.968-4.833a.66.66 0 0 1-.01-.053l-.468-2.336H1.167A.667.667 0 0 1 .5 1.917ZM4.878 5.48l.813 4.064a.492.492 0 0 0 .492.397H11.841a.492.492 0 0 0 .492-.395l.775-4.067h-8.23Zm-.32 8.024a1.246 1.246 0 1 1 2.49 0 1.246 1.246 0 0 1-2.49 0Zm6.373 0a1.246 1.246 0 1 1 2.491 0 1.246 1.246 0 0 1-2.491 0Z" fill="#2D3440"></path></svg><svg fill="none" viewBox="0 0 16 16" id="header-user-login"><path fill-rule="evenodd" clip-rule="evenodd" d="M9 1.667A.667.667 0 0 1 9.667 1h2.666a2 2 0 0 1 2 2v9.333a2 2 0 0 1-2 2H9.667a.667.667 0 1 1 0-1.333h2.666a.666.666 0 0 0 .472-.195.666.666 0 0 0 .195-.472V3a.666.666 0 0 0-.667-.667H9.667A.667.667 0 0 1 9 1.667ZM5.862 3.862a.667.667 0 0 1 .943 0l3.333 3.333a.667.667 0 0 1 0 .943l-3.333 3.333a.667.667 0 1 1-.943-.942l2.195-2.196h-6.39a.667.667 0 1 1 0-1.333h6.39L5.862 4.805a.667.667 0 0 1 0-.943Z" fill="#2D3440"></path></svg><svg fill="none" viewBox="0 0 16 16" id="header-user-search"><path fill-rule="evenodd" clip-rule="evenodd" d="M7.33 2.663a4.667 4.667 0 1 0 3.238 8.028.67.67 0 0 1 .123-.123 4.667 4.667 0 0 0-3.36-7.904Zm4.688 8.412a6 6 0 1 0-.943.943l2.45 2.45a.667.667 0 0 0 .943-.943l-2.45-2.45Z" fill="#2D3440"></path></svg><svg fill="none" viewBox="0 0 16 16" id="slider-arrow"><path fill-rule="evenodd" clip-rule="evenodd" d="M6.195 2.865a.665.665 0 0 1 .94 0l4.672 4.671a.665.665 0 0 1 0 .94l-4.672 4.672a.665.665 0 1 1-.94-.94l4.201-4.202-4.201-4.2a.665.665 0 0 1 0-.941Z" fill="#FCFCFC"></path></svg><svg fill="none" viewBox="0 0 24 24" id="social-telegram"><path fill-rule="evenodd" clip-rule="evenodd" d="M24 12a12 12 0 1 1-24 0 12 12 0 0 1 24 0ZM12.43 8.86c-1.17.48-3.5 1.49-7 3.01-.57.23-.86.45-.9.67-.04.36.42.5 1.04.7l.27.08c.6.2 1.43.44 1.86.45.39 0 .82-.16 1.3-.48 3.27-2.21 4.96-3.33 5.06-3.35.08-.02.18-.04.25.02.07.07.07.18.06.22-.05.19-1.84 1.86-2.77 2.72a28.24 28.24 0 0 0-.82.79c-.57.54-1 .96.02 1.63.5.32.89.59 1.28.85a88.77 88.77 0 0 0 1.8 1.23c.5.35.95.67 1.5.62.32-.03.65-.33.82-1.23.4-2.13 1.18-6.73 1.36-8.63.01-.16 0-.31-.02-.47a.5.5 0 0 0-.17-.33.78.78 0 0 0-.46-.14c-.46.01-1.15.25-4.48 1.64Z" fill="#FCFCFC"></path></svg><svg fill="none" viewBox="0 0 24 24" id="social-vk"><path fill-rule="evenodd" clip-rule="evenodd" d="M24 12a12 12 0 1 1-24 0 12 12 0 0 1 24 0Zm-11.41 2.97h-.72s-1.58.09-2.98-1.18C7.37 12.4 6.03 9.65 6.03 9.65s-.07-.18 0-.27c.1-.1.36-.1.36-.1l1.72-.01s.16.02.27.1c.1.05.15.17.15.17s.28.61.65 1.17c.71 1.08 1.05 1.32 1.29 1.2.35-.16.25-1.53.25-1.53s0-.5-.18-.71c-.14-.17-.41-.22-.53-.24-.1-.01.06-.2.26-.3.31-.13.86-.13 1.5-.13.5 0 .65.03.84.07.46.1.44.41.41 1.08l-.02.7v.18c-.01.34-.02.73.23.88.13.07.45 0 1.26-1.19.38-.56.66-1.23.66-1.23s.07-.12.16-.17c.1-.05.24-.04.24-.04h1.8s.54-.06.63.15c.1.23-.2.75-.94 1.61-.7.82-1.03 1.12-1 1.38.01.2.23.38.66.72.89.73 1.13 1.1 1.18 1.2l.01.01c.4.58-.44.62-.44.62l-1.6.02s-.34.06-.8-.2a3.94 3.94 0 0 1-.69-.6c-.33-.34-.65-.66-.91-.58-.45.12-.44.96-.44.96s0 .18-.1.28c-.1.1-.32.12-.32.12Z" fill="#FCFCFC"></path></svg><svg fill="none" viewBox="0 0 24 24" id="social-youtube"><path d="m14 11.8-2.8-1.32c-.25-.11-.45.01-.45.29v2.46c0 .28.2.4.45.29L14 12.2c.25-.12.25-.3 0-.42ZM12 0a12 12 0 1 0 0 24 12 12 0 0 0 0-24Zm0 16.88c-6.14 0-6.25-.56-6.25-4.88s.1-4.88 6.25-4.88c6.14 0 6.25.56 6.25 4.88s-.1 4.88-6.25 4.88Z" fill="#FCFCFC"></path></svg></svg>