<svg xmlns="http://www.w3.org/2000/svg"><style>:root svg:not(:target){display:none}</style><svg fill="none" viewBox="0 0 16 16" id="header-navigation-arrow"><path fill-rule="evenodd" clip-rule="evenodd" d="M2.865 6.195a.667.667 0 0 1 .943 0l4.195 4.195L12.2 6.195a.667.667 0 1 1 .942.943l-4.666 4.667a.666.666 0 0 1-.943 0L2.865 7.138a.667.667 0 0 1 0-.943Z" fill="#2D3440"></path></svg><svg fill="none" viewBox="0 0 16 16" id="header-user-cart"><path fill-rule="evenodd" clip-rule="evenodd" d="M.5 1.917a.667.667 0 0 1 .667-.667h2.317a.667.667 0 0 1 .654.536l.473 2.361h9.303a.667.667 0 0 1 .655.792L13.642 9.8l-.001.005a1.826 1.826 0 0 1-1.818 1.47H6.202a1.825 1.825 0 0 1-1.818-1.47l-.968-4.833a.66.66 0 0 1-.01-.053l-.468-2.336H1.167A.667.667 0 0 1 .5 1.917ZM4.878 5.48l.813 4.064a.492.492 0 0 0 .492.397H11.841a.492.492 0 0 0 .492-.395l.775-4.067h-8.23Zm-.32 8.024a1.246 1.246 0 1 1 2.49 0 1.246 1.246 0 0 1-2.49 0Zm6.373 0a1.246 1.246 0 1 1 2.491 0 1.246 1.246 0 0 1-2.491 0Z" fill="#2D3440"></path></svg><svg fill="none" viewBox="0 0 16 16" id="header-user-login"><path fill-rule="evenodd" clip-rule="evenodd" d="M9 1.667A.667.667 0 0 1 9.667 1h2.666a2 2 0 0 1 2 2v9.333a2 2 0 0 1-2 2H9.667a.667.667 0 1 1 0-1.333h2.666a.666.666 0 0 0 .472-.195.666.666 0 0 0 .195-.472V3a.666.666 0 0 0-.667-.667H9.667A.667.667 0 0 1 9 1.667ZM5.862 3.862a.667.667 0 0 1 .943 0l3.333 3.333a.667.667 0 0 1 0 .943l-3.333 3.333a.667.667 0 1 1-.943-.942l2.195-2.196h-6.39a.667.667 0 1 1 0-1.333h6.39L5.862 4.805a.667.667 0 0 1 0-.943Z" fill="#2D3440"></path></svg><svg fill="none" viewBox="0 0 16 16" id="header-user-search"><path fill-rule="evenodd" clip-rule="evenodd" d="M7.33 2.663a4.667 4.667 0 1 0 3.238 8.028.67.67 0 0 1 .123-.123 4.667 4.667 0 0 0-3.36-7.904Zm4.688 8.412a6 6 0 1 0-.943.943l2.45 2.45a.667.667 0 0 0 .943-.943l-2.45-2.45Z" fill="#2D3440"></path></svg></svg>