<svg fill="none" xmlns="http://www.w3.org/2000/svg" viewBox="0 0 9 16"><g clip-path="url(#a)"><path fill-rule="evenodd" clip-rule="evenodd" d="M9-10a1 1 0 0 0-1 1V1L1 8l7 7v26a1 1 0 0 0 1 1h160a1 1 0 0 0 1-1V-9a1 1 0 0 0-1-1H9Z" fill="#fff"/><path d="m8 1 .354.354.146-.147V1H8ZM1 8l-.354-.354L.293 8l.353.354L1 8Zm7 7h.5v-.207l-.146-.147L8 15Zm.5-24a.5.5 0 0 1 .5-.5v-1A1.5 1.5 0 0 0 7.5-9h1Zm0 10V-9h-1V1h1ZM1.354 8.354l7-7-.708-.708-7 7 .708.708Zm7 6.292-7-7-.708.708 7 7 .708-.708ZM8.5 41V15h-1v26h1Zm.5.5a.5.5 0 0 1-.5-.5h-1A1.5 1.5 0 0 0 9 42.5v-1Zm160 0H9v1h160v-1Zm.5-.5a.5.5 0 0 1-.5.5v1a1.5 1.5 0 0 0 1.5-1.5h-1Zm0-50v50h1V-9h-1Zm-.5-.5a.5.5 0 0 1 .5.5h1a1.5 1.5 0 0 0-1.5-1.5v1ZM9-9.5h160v-1H9v1Z" fill="#B9B9B9"/></g><defs><clipPath id="a"><path fill="#fff" d="M0 0h9v16H0z"/></clipPath></defs></svg>